# xmcd CD database file
#
# Track frame offsets:
#	150
#	28925
#	61425
#	83312
#	101475
#	123050
#	134650
#	163175
#
# Disc length: 2629 seconds
#
# Revision: 3
# Processed by: cddbd v1.5.2PL0 Copyright (c) Steve Scherf et al.
# Submitted via: CDex 1.51
#
DISCID=630a4308
DTITLE=Lightnin' Hopkins - Lightnin' In New York
DYEAR=1960
DGENRE=Blues
TTITLE0=Take It Easy
TTITLE1=Mighty Crazy
TTITLE2=Your Own Fault, Baby, To Treat Me The Way You
TTITLE3=I've Had My Fun If I Don't Get Well No More
TTITLE4=The Troubled Blues
TTITLE5=Lightnin's Piano Boogie
TTITLE6=Wonder Why
TTITLE7=Mister Charlie
EXTD=YEAR: 1960
EXTT0=
EXTT1=
EXTT2=
EXTT3=
EXTT4=
EXTT5=
EXTT6=
EXTT7=
PLAYORDER=
